<?xml version="1.0" encoding="utf-8"?>
<!-- Generator: Adobe Illustrator 17.0.1, SVG Export Plug-In . SVG Version: 6.00 Build 0)  -->
<!DOCTYPE svg PUBLIC "-//W3C//DTD SVG 1.1//EN" "http://www.w3.org/Graphics/SVG/1.1/DTD/svg11.dtd">
<svg version="1.1" id="Layer_1" xmlns="http://www.w3.org/2000/svg" xmlns:xlink="http://www.w3.org/1999/xlink" x="0px" y="0px"
	 width="595.276px" height="595.276px" viewBox="0 0 595.276 595.276" enable-background="new 0 0 595.276 595.276"
	 xml:space="preserve">
<g>
	<path fill="#D7345B" d="M123.705,363.03c-4.58,0-8.49-1.623-11.734-4.864c-3.244-3.246-4.867-7.157-4.867-11.736V231.081
		c0-20.227,7.156-37.494,21.467-51.805c14.311-14.311,31.534-21.468,51.664-21.468c20.227,0,37.494,7.157,51.805,21.468
		c14.313,14.311,21.468,31.578,21.468,51.805V346.43c0,4.58-1.621,8.49-4.865,11.736c-3.244,3.241-7.157,4.864-11.736,4.864
		s-8.49-1.623-11.734-4.864c-3.244-3.246-4.867-7.157-4.867-11.736V231.081c0-11.067-3.91-20.514-11.736-28.335
		c-7.821-7.826-17.265-11.736-28.335-11.736c-10.97,0-20.37,3.911-28.193,11.736c-7.821,7.821-11.736,17.268-11.736,28.335V346.43
		c0,4.58-1.621,8.49-4.865,11.736C132.198,361.408,128.285,363.03,123.705,363.03z"/>
	<path fill="#00ADA7" d="M366.329,295.29c0,1.402,0.065,2.776,0.19,4.126v-68.335c0-1.801-0.077-3.569-0.19-5.323V295.29z"/>
	<path fill="#454545" d="M114.714,411.579v13.792h-7.621v-35.943h10.473c4.885,0,8.498,0.889,10.842,2.666
		c2.344,1.779,3.516,4.479,3.516,8.102c0,2.114-0.582,3.994-1.745,5.641c-1.164,1.648-2.811,2.939-4.942,3.873
		c5.408,8.081,8.932,13.301,10.572,15.661h-8.457l-8.58-13.792H114.714z M114.714,405.384h2.459c2.409,0,4.187-0.402,5.334-1.205
		c1.147-0.803,1.721-2.065,1.721-3.787c0-1.704-0.586-2.917-1.758-3.639c-1.172-0.72-2.987-1.08-5.445-1.08h-2.312V405.384z"/>
	<path fill="#454545" d="M151.93,425.863c-4.425,0-7.884-1.221-10.374-3.664c-2.492-2.441-3.737-5.901-3.737-10.375
		c0-4.605,1.152-8.165,3.454-10.682c2.303-2.515,5.486-3.774,9.551-3.774c3.885,0,6.908,1.107,9.072,3.319
		c2.163,2.213,3.245,5.271,3.245,9.17v3.639h-17.726c0.082,2.131,0.713,3.796,1.893,4.992c1.181,1.196,2.835,1.793,4.967,1.793
		c1.655,0,3.22-0.172,4.695-0.516c1.475-0.344,3.015-0.892,4.622-1.647v5.801c-1.312,0.657-2.713,1.144-4.204,1.463
		C155.896,425.703,154.077,425.863,151.93,425.863z M150.873,402.704c-1.59,0-2.836,0.504-3.737,1.512
		c-0.901,1.008-1.418,2.438-1.549,4.289h10.523c-0.033-1.851-0.516-3.281-1.45-4.289
		C153.725,403.208,152.463,402.704,150.873,402.704z"/>
	<path fill="#454545" d="M184.081,425.863c-3.229,0-5.761-1.172-7.597-3.516h-0.393c0.262,2.294,0.393,3.622,0.393,3.983v11.137
		h-7.498v-39.581h6.097l1.058,3.565h0.344c1.753-2.721,4.352-4.082,7.793-4.082c3.245,0,5.786,1.254,7.621,3.762
		c1.836,2.508,2.754,5.991,2.754,10.449c0,2.933-0.431,5.483-1.291,7.645c-0.86,2.164-2.085,3.811-3.675,4.942
		C188.097,425.297,186.228,425.863,184.081,425.863z M181.869,403.367c-1.852,0-3.204,0.571-4.056,1.709
		c-0.853,1.14-1.295,3.021-1.328,5.643v0.811c0,2.951,0.439,5.065,1.315,6.344c0.877,1.278,2.266,1.918,4.167,1.918
		c3.359,0,5.04-2.77,5.04-8.311c0-2.704-0.414-4.733-1.242-6.084C184.937,404.044,183.639,403.367,181.869,403.367z"/>
	<path fill="#454545" d="M218.053,425.371l-1.451-3.737h-0.196c-1.262,1.589-2.561,2.692-3.897,3.307
		c-1.336,0.614-3.078,0.922-5.225,0.922c-2.639,0-4.716-0.754-6.232-2.262c-1.516-1.509-2.274-3.655-2.274-6.441
		c0-2.917,1.021-5.069,3.061-6.453c2.041-1.386,5.118-2.152,9.232-2.299l4.77-0.148v-1.204c0-2.786-1.426-4.18-4.278-4.18
		c-2.196,0-4.778,0.664-7.744,1.991l-2.483-5.065c3.163-1.654,6.67-2.483,10.523-2.483c3.688,0,6.515,0.803,8.482,2.41
		c1.967,1.605,2.95,4.048,2.95,7.326v18.315H218.053z M215.84,412.636l-2.901,0.098c-2.179,0.065-3.803,0.46-4.867,1.18
		c-1.066,0.722-1.598,1.82-1.598,3.295c0,2.115,1.212,3.172,3.638,3.172c1.737,0,3.127-0.499,4.167-1.5
		c1.041-0.999,1.561-2.327,1.561-3.983V412.636z"/>
	<rect x="230.757" y="397.885" fill="#454545" width="7.498" height="27.485"/>
	<path fill="#454545" d="M261.212,397.368c1.016,0,1.86,0.074,2.532,0.221l-0.565,7.031c-0.607-0.163-1.344-0.245-2.213-0.245
		c-2.393,0-4.257,0.614-5.593,1.844c-1.336,1.229-2.004,2.949-2.004,5.162v13.989h-7.498v-27.485h5.679l1.106,4.622h0.369
		c0.851-1.54,2.003-2.782,3.454-3.725C257.93,397.84,259.507,397.368,261.212,397.368z"/>
	<path fill="#454545" d="M287.66,417.209c0,2.819-0.98,4.967-2.938,6.441c-1.959,1.475-4.888,2.213-8.789,2.213
		c-2,0-3.705-0.135-5.114-0.406c-1.41-0.27-2.729-0.667-3.958-1.192v-6.195c1.393,0.655,2.963,1.203,4.708,1.647
		c1.746,0.443,3.282,0.664,4.61,0.664c2.721,0,4.081-0.787,4.081-2.361c0-0.59-0.181-1.069-0.541-1.438
		c-0.36-0.369-0.983-0.787-1.868-1.254c-0.885-0.467-2.065-1.012-3.54-1.635c-2.114-0.885-3.667-1.705-4.658-2.459
		c-0.992-0.753-1.713-1.619-2.164-2.594c-0.451-0.974-0.676-2.176-0.676-3.602c0-2.441,0.946-4.331,2.84-5.666
		c1.893-1.335,4.576-2.004,8.051-2.004c3.311,0,6.532,0.722,9.662,2.164l-2.262,5.408c-1.377-0.59-2.663-1.073-3.86-1.451
		c-1.198-0.376-2.418-0.565-3.664-0.565c-2.212,0-3.319,0.599-3.319,1.795c0,0.671,0.357,1.254,1.069,1.745
		c0.713,0.492,2.274,1.221,4.683,2.189c2.148,0.868,3.72,1.679,4.721,2.434c0.999,0.754,1.737,1.623,2.213,2.606
		C287.423,414.677,287.66,415.848,287.66,417.209z"/>
	<path fill="#00ADA7" d="M333.572,230.228v-49.15c0-3.53,0.973-6.658,2.9-9.395c-12.434-9.242-26.773-13.874-43.027-13.874
		c-20.129,0-37.353,7.157-51.664,21.468c-14.311,14.311-21.467,31.578-21.467,51.805V346.43c0,4.58,1.623,8.49,4.867,11.736
		c3.244,3.241,7.154,4.864,11.734,4.864c4.58,0,8.493-1.623,11.736-4.864c3.244-3.246,4.864-7.157,4.864-11.736V231.081
		c0-11.067,3.915-20.514,11.736-28.335c7.823-7.826,17.224-11.736,28.194-11.736c11.069,0,20.514,3.911,28.335,11.736
		c7.621,7.616,11.499,16.787,11.698,27.481H333.572z"/>
	<path fill="#D7345B" d="M243.085,379.661c-0.321-1.402-0.974-2.675-1.877-3.733c-1.613-1.891-4.009-3.093-6.689-3.093
		c-4.857,0-8.795,3.938-8.795,8.795c0,0.292,0.016,0.58,0.044,0.865c0.141,1.447,0.636,2.789,1.392,3.944
		c1.571,2.399,4.278,3.987,7.359,3.987c4.857,0,8.795-3.938,8.795-8.795C243.314,380.951,243.23,380.295,243.085,379.661z"/>
	<path fill="#D7345B" d="M488.182,239.85v-58.773c0-4.58-1.623-8.49-4.867-11.736c-3.244-3.241-7.154-4.864-11.734-4.864
		c-4.58,0-8.492,1.623-11.736,4.864c-3.244,3.246-4.865,7.157-4.865,11.736v58.777v56.572c0,11.067-3.915,20.514-11.736,28.335
		c-7.824,7.826-17.224,11.736-28.193,11.736c-11.07,0-20.514-3.91-28.335-11.736c-6.708-6.704-10.517-14.613-11.475-23.703h-0.318
		v-69.977c0-20.227-7.154-37.494-21.468-51.805c-2.81-2.81-5.739-5.335-8.778-7.593c-1.927,2.737-2.9,5.865-2.9,9.395v115.349
		c0,20.227,7.154,37.494,21.468,51.805c2.811,2.81,5.739,5.335,8.778,7.593c12.434,9.242,26.773,13.874,43.027,13.874
		c14.866,0,28.141-3.916,39.835-11.721c-0.607,9.878-4.483,18.402-11.641,25.56c-6.764,6.766-14.737,10.53-23.856,11.44h-28.071
		h-2.301h-67.712c-4.58,0-8.49,1.623-11.736,4.867c-3.241,3.244-4.865,7.154-4.865,11.734c0,4.58,1.623,8.493,4.865,11.736
		c3.246,3.244,7.157,4.865,11.736,4.865h67.712h2.301h25.64h4.614c17.348-1.398,32.406-8.434,45.143-21.171
		c3.799-3.799,7.079-7.814,9.87-12.03c7.721-11.665,11.597-24.918,11.597-39.774V239.854
		C488.183,239.853,488.182,239.852,488.182,239.85z"/>
</g>
</svg>
